<?xml version="1.0" encoding="UTF-8"?>
<!-- Created with Inkscape (http://www.inkscape.org/) -->
<svg width="247.34mm" height="136.1mm" version="1.1" viewBox="0 0 247.34 136.1" xmlns="http://www.w3.org/2000/svg" xmlns:cc="http://creativecommons.org/ns#" xmlns:dc="http://purl.org/dc/elements/1.1/" xmlns:rdf="http://www.w3.org/1999/02/22-rdf-syntax-ns#">
 <metadata>
  <rdf:RDF>
   <cc:Work rdf:about="">
    <dc:format>image/svg+xml</dc:format>
    <dc:type rdf:resource="http://purl.org/dc/dcmitype/StillImage"/>
    <dc:title/>
   </cc:Work>
  </rdf:RDF>
 </metadata>
 <g transform="translate(230.82 -129.54)">
  <g>
   <path d="m-165.07 129.56a65.729 68.036 0 0 0-65.729 68.036 65.729 68.036 0 0 0 65.729 68.035 65.729 68.036 0 0 0 63.095-49.154c-2.6022 5.282-6.2975 9.6661-11.094 13.145-10.485 7.6058-26.828 11.408-49.03 11.408h-31.994v-94.105h31.994c22.306 0 38.675 3.8022 49.108 11.408 1.197 0.86782 2.3215 1.7951 3.3812 2.7758a65.729 68.036 0 0 0-55.461-31.549zm-13.45 27.829v73.179h18.811c15.881 0 27.497-2.9416 34.846-8.8246 7.4009-5.883 11.101-15.169 11.101-27.859 0-12.606-3.7002-21.83-11.101-27.671-7.3495-5.883-18.965-8.8246-34.846-8.8246z" fill="#0f0" stroke="#000" stroke-linecap="round" stroke-width=".026458"/>
   <text x="-96.361275" y="220.23389" fill="#ffffff" font-size="50.8px" font-weight="bold" letter-spacing="0px" stroke-width=".26458" word-spacing="0px" style="line-height:1.25" xml:space="preserve"><tspan x="-96.361275" y="220.23389" font-family="Z003">atakit</tspan><tspan x="-96.361275" y="287.7207" font-family="Z003"/><tspan x="-96.361275" y="351.2207" font-family="'Noto Serif Hebrew'"/></text>
  </g>
 </g>
</svg>
