<?xml version="1.0" encoding="UTF-8"?>
<!-- Created with Inkscape (http://www.inkscape.org/) -->
<svg width="181.68mm" height="50.069mm" enable-background="new" version="1.1" viewBox="0 0 181.68 50.069" xmlns="http://www.w3.org/2000/svg" xmlns:cc="http://creativecommons.org/ns#" xmlns:dc="http://purl.org/dc/elements/1.1/" xmlns:rdf="http://www.w3.org/1999/02/22-rdf-syntax-ns#" xmlns:xlink="http://www.w3.org/1999/xlink">
 <defs>
  <filter id="filter3865" color-interpolation-filters="sRGB">
   <feBlend in2="BackgroundImage" mode="lighten"/>
  </filter>
 </defs>
 <metadata>
  <rdf:RDF>
   <cc:Work rdf:about="">
    <dc:format>image/svg+xml</dc:format>
    <dc:type rdf:resource="http://purl.org/dc/dcmitype/StillImage"/>
    <dc:title/>
   </cc:Work>
  </rdf:RDF>
 </metadata>
 <g transform="translate(-15.184 -48.339)" filter="url(#filter3865)">
  <g transform="translate(29.4 3.7418)">
   <g transform="matrix(.63528 0 0 .63468 583.84 170.68)" filter="url(#filter3865)" stroke-width="1.5749">
    <ellipse cx="-900.5" cy="-159.2" rx="34.097" ry="32.87" fill="#4575ff" fill-opacity=".98431" stroke-opacity="0"/>
    <path d="m-898.9-185.2v0.0249h-11.021c-0.38975 0-0.7607 0.0779-1.0986 0.21807-0.13964-0.0106-0.27987-0.0175-0.42169-0.0175-3.8346 0-6.9215 3.8975-6.9215 8.739v33.209c0 6.3973 3.087 11.116 6.9215 8.739 0.51671-0.32035 1.1966-0.0981 1.7575-0.28216 0.12065 0.0215 0.24569 0.0177 0.37156 0.0346 5.2505 0.70565 8.6193 0 12.929 0 0.69945 0-0.37856 0.52501 0 0 17.998 2.8065 29.985-13.271 29.822-25.925-0.1992-13.708-14.62-24.74-32.34-24.74zm-6.1045 5.7376h6.1877l0.59168 40.752h-7.1918c0.57098-1.272 0.89813-2.7433 0.89813-4.3155v-33.209c0-1.1412-0.17335-2.229-0.48575-3.2267z" fill="#fff" fill-opacity=".96333" fill-rule="evenodd" stroke-width=".41668"/>
   </g>
   <text transform="scale(1.0007 .99931)" x="33.161045" y="79.437729" fill="#4575ff" fill-opacity=".98431" font-family="'Noto Mono'" font-size="32.485px" font-weight="bold" letter-spacing="0px" stroke-width=".26458" word-spacing="0px" style="font-feature-settings:normal;font-variant-caps:normal;font-variant-ligatures:normal;font-variant-numeric:normal;line-height:1.25" xml:space="preserve"><tspan x="33.161045" y="79.437729" fill="#4575ff" fill-opacity=".98431" font-family="'Nimbus Mono PS'" font-size="32.485px" font-weight="bold" stroke-width=".26458" style="font-feature-settings:normal;font-variant-caps:normal;font-variant-ligatures:normal;font-variant-numeric:normal">datakit</tspan></text>
  </g>
 </g>
</svg>
