<svg xmlns="http://www.w3.org/2000/svg" viewBox="0 0 868 198.34">
  <defs>
    <style>
      .cls-1 {
        fill: #0d6d76;
      }

      .cls-2 {
        fill: #ffd100;
      }
    </style>
  </defs>
  <title>volane_colour</title>
  <g id="Layer_2" data-name="Layer 2">
    <g id="Layer_1-2" data-name="Layer 1">
      <path class="cls-1"
        d="M850.76,63.16h2.36a10.71,10.71,0,0,0,2.88-.22,1.49,1.49,0,0,0,.92-.67,2.31,2.31,0,0,0,.32-1.23,2.07,2.07,0,0,0-.41-1.32,2,2,0,0,0-1.21-.66h-4.86Zm-3.21,9.43V56.25h6.76a10.8,10.8,0,0,1,3.7.44,3.53,3.53,0,0,1,1.85,1.56,4.79,4.79,0,0,1,.71,2.59,4.5,4.5,0,0,1-.61,2.38,4.24,4.24,0,0,1-.46.65,4.62,4.62,0,0,1-2.65,1.44c.27.34.74.81,1.24,1.43a28.15,28.15,0,0,1,1.81,2.65c.43.69,1.08,1.8,2,3.2h-3.94L855.6,69a23.68,23.68,0,0,0-1.69-2.41,2.39,2.39,0,0,0-1-.67,5.52,5.52,0,0,0-1.62-.18h-.65v6.82Zm6.21-21.27A13.07,13.07,0,1,0,866.85,64.4a13.11,13.11,0,0,0-13.09-13.08m-.35,27.4a14.17,14.17,0,0,1-5.55-1.21,15.06,15.06,0,0,1-4.49-3.17,13.92,13.92,0,0,1-1.71-2.12,15.11,15.11,0,0,1-1.28-2.46A14.55,14.55,0,0,1,845.9,52.4a15.11,15.11,0,0,1,2.46-1.28,14.33,14.33,0,0,1,11.13.21,16.82,16.82,0,0,1,2.41,1.37A13.64,13.64,0,0,1,864,54.5a13.12,13.12,0,0,1,1.72,2.14A13.52,13.52,0,0,1,867,59.08a14.17,14.17,0,0,1-.21,11.1,15,15,0,0,1-1.37,2.4,14.68,14.68,0,0,1-1.8,2.06,13.35,13.35,0,0,1-2.13,1.7,13.91,13.91,0,0,1-8,2.3" />
      <path class="cls-1"
        d="M327.68,13,267.85,149.62c-9,20.27-24.92,22.14-34.33,22.14s-24.7-2-26.43-22.14L195.27,13v-.46a4.57,4.57,0,0,1,4.59-4.37h22.51a3.81,3.81,0,0,1,3.52,3.7l8.52,131c.22,2.61.64,3.48,2.83,3.48s3.06-.87,4.15-3.48L296.26,11.89a6.06,6.06,0,0,1,4.8-3.7h23.83a3.05,3.05,0,0,1,3.29,3.06A6.13,6.13,0,0,1,327.68,13Z" />
      <path class="cls-1"
        d="M377.81,70c-13.17,0-24.41,7.89-28.31,29.56l-3.23,17.75a52.67,52.67,0,0,0-.88,9.63c0,12.93,6.27,19.93,19,19.93,15.13,0,24.41-9.19,28.09-29.56l3.23-17.75a51.89,51.89,0,0,0,.88-9.63C396.62,77,390.57,70,377.81,70Zm46.46,29.56L421,117.27c-6.71,36.14-27,54.49-61,54.49-29.38,0-43.14-21-43.14-44a56.18,56.18,0,0,1,.88-10.52l3.11-17.75C327.42,63.6,348.17,45,382.11,45c29.58,0,43.2,20.24,43.2,43.15A66.92,66.92,0,0,1,424.27,99.52Z" />
      <path class="cls-1"
        d="M485.63,9.48,458.05,166.17a5.52,5.52,0,0,1-5,4.57H432.88a3.51,3.51,0,0,1-2.53-1.11,3.45,3.45,0,0,1-.94-2.59v-.87L457,9.48a5.34,5.34,0,0,1,5-4.36h20.2a3.29,3.29,0,0,1,2.5,1,3.38,3.38,0,0,1,1,2.52Z" />
      <path class="cls-1"
        d="M541.34,68.59c-18.66,0-25.84,13.35-28.87,31.32l-3.9,22.55a46.72,46.72,0,0,0-.87,9c0,12.48,6.5,16.63,15,16.63s17.35-3.5,27.12-9.18l11.92-68.78A116,116,0,0,0,541.34,68.59Zm51.41-12L573.87,165.69a5.54,5.54,0,0,1-5.19,4.39H551.32a3.23,3.23,0,0,1-2.62-1,3.31,3.31,0,0,1-.87-2.7v-.67l.88-6.35c-12.16,9.41-23,12.42-33.63,12.42-20,0-35.58-13.57-35.58-39.63A68.79,68.79,0,0,1,480.58,119s1.73-11,3.25-19c6-34.17,26.68-55,61.62-55A170.71,170.71,0,0,1,588,50.67c3.25.89,5,1.54,5,4.17A5,5,0,0,1,592.75,56.64Z" />
      <path class="cls-1"
        d="M704.88,94.88l-12.36,71.27a5.77,5.77,0,0,1-5.21,4.58h-20A3.52,3.52,0,0,1,663.6,167c0-.22.22-.67.22-.87l12.36-71.27a89,89,0,0,0,1.52-13.13c0-8.52-3.69-11.37-15.61-11.37-7.37,0-15.84,3.07-25.8,7.88l-15.4,87.89a5.79,5.79,0,0,1-5.21,4.58h-20a3.52,3.52,0,0,1-2.66-1,3.61,3.61,0,0,1-1-2.68c0-.22.22-.67.22-.87l20-114.35a5.34,5.34,0,0,1,5-4.36h18.87a3.66,3.66,0,0,1,2.71,1.08,3.73,3.73,0,0,1,1.06,2.74v.64L639,56.49C652.84,48.41,662.17,46,675,46c23.64,0,31.45,14.13,31.45,32.79A85.93,85.93,0,0,1,704.88,94.88Z" />
      <path class="cls-1"
        d="M777.91,70C760.5,70,752.43,81.8,749.59,97.8h46.2a53,53,0,0,0,.86-8.33C796.74,76.74,789.91,70,777.91,70Zm46,32.36-1.75,10.52c-.66,3.5-2.17,5.46-5.23,5.46h-71a64.73,64.73,0,0,0-1.08,9c0,11.84,6,19.71,22.14,19.71s30.94-1.52,40.26-2.41h.87c1.75,0,3.28.44,3.28,2.41v.89l-2.54,14.44c-.66,3.5-1.31,5-5.45,5.68a211.23,211.23,0,0,1-43.75,3.69c-19.38,0-42.92-10.95-42.92-44a71.54,71.54,0,0,1,1.09-13.15L720.23,101C727.42,60.1,749,45,782.34,45c29,0,42.72,19.26,42.72,44.89A82.85,82.85,0,0,1,823.91,102.35Z" />
      <path class="cls-2"
        d="M7,.77,3.69,2.5A6.9,6.9,0,0,0,.77,11.77L96.19,194.63a6.86,6.86,0,0,0,4,3.4,7,7,0,0,0,5.25-.47l3.32-1.74a6.83,6.83,0,0,0,2.89-9.23L16.24,3.67A6.87,6.87,0,0,0,7,.77Z" />
      <path class="cls-2"
        d="M50.93,17.14l-3.29,1.73a7,7,0,0,0-2.9,9.35l70.94,137.71a6.82,6.82,0,0,0,9.23,3l3.31-1.76a6.85,6.85,0,0,0,3.36-4,7,7,0,0,0-.47-5.25L60.14,20A6.8,6.8,0,0,0,50.93,17.14Z" />
      <path class="cls-2"
        d="M89.75,26.34l-3.27,1.72a7,7,0,0,0-2.9,9.33l54.67,105a6.79,6.79,0,0,0,9.19,3l3.29-1.76a6.83,6.83,0,0,0,3.34-4,6.92,6.92,0,0,0-.47-5.24L98.92,29.24A6.77,6.77,0,0,0,89.75,26.34Z" />
    </g>
  </g>
</svg>