<?xml version="1.0" encoding="UTF-8" standalone="no"?>
<!-- Created with Inkscape (http://www.inkscape.org/) -->

<svg
   width="218.29654mm"
   height="52.47644mm"
   viewBox="0 0 218.29654 52.47644"
   version="1.1"
   id="svg1"
   xml:space="preserve"
   xmlns="http://www.w3.org/2000/svg"
   xmlns:svg="http://www.w3.org/2000/svg"><defs
     id="defs1"><style
       id="style1">
      .cls-1 {
        fill: #0d6d76;
      }

      .cls-2 {
        fill: #ffd100;
      }
    </style></defs><g
     id="layer1"
     transform="translate(9.721142,-122.26178)"><g
       id="Layer_1-2"
       data-name="Layer 1"
       transform="matrix(0.26458333,0,0,0.26458333,-9.721718,122.26184)"><path
         class="cls-1"
         d="m 850.76,63.16 h 2.36 a 10.71,10.71 0 0 0 2.88,-0.22 1.49,1.49 0 0 0 0.92,-0.67 2.31,2.31 0 0 0 0.32,-1.23 2.07,2.07 0 0 0 -0.41,-1.32 2,2 0 0 0 -1.21,-0.66 h -4.86 z m -3.21,9.43 V 56.25 h 6.76 a 10.8,10.8 0 0 1 3.7,0.44 3.53,3.53 0 0 1 1.85,1.56 4.79,4.79 0 0 1 0.71,2.59 4.5,4.5 0 0 1 -0.61,2.38 4.24,4.24 0 0 1 -0.46,0.65 4.62,4.62 0 0 1 -2.65,1.44 c 0.27,0.34 0.74,0.81 1.24,1.43 a 28.15,28.15 0 0 1 1.81,2.65 c 0.43,0.69 1.08,1.8 2,3.2 h -3.94 L 855.6,69 a 23.68,23.68 0 0 0 -1.69,-2.41 2.39,2.39 0 0 0 -1,-0.67 5.52,5.52 0 0 0 -1.62,-0.18 h -0.65 v 6.82 z m 6.21,-21.27 A 13.07,13.07 0 1 0 866.85,64.4 13.11,13.11 0 0 0 853.76,51.32 m -0.35,27.4 a 14.17,14.17 0 0 1 -5.55,-1.21 15.06,15.06 0 0 1 -4.49,-3.17 13.92,13.92 0 0 1 -1.71,-2.12 15.11,15.11 0 0 1 -1.28,-2.46 14.55,14.55 0 0 1 5.52,-17.36 15.11,15.11 0 0 1 2.46,-1.28 14.33,14.33 0 0 1 11.13,0.21 16.82,16.82 0 0 1 2.41,1.37 13.64,13.64 0 0 1 2.1,1.8 13.12,13.12 0 0 1 1.72,2.14 13.52,13.52 0 0 1 1.28,2.44 14.17,14.17 0 0 1 -0.21,11.1 15,15 0 0 1 -1.37,2.4 14.68,14.68 0 0 1 -1.8,2.06 13.35,13.35 0 0 1 -2.13,1.7 13.91,13.91 0 0 1 -8,2.3"
         id="path1" /><path
         class="cls-1"
         d="m 327.68,13 -59.83,136.62 c -9,20.27 -24.92,22.14 -34.33,22.14 -9.41,0 -24.7,-2 -26.43,-22.14 L 195.27,13 v -0.46 a 4.57,4.57 0 0 1 4.59,-4.37 h 22.51 a 3.81,3.81 0 0 1 3.52,3.7 l 8.52,131 c 0.22,2.61 0.64,3.48 2.83,3.48 2.19,0 3.06,-0.87 4.15,-3.48 L 296.26,11.89 a 6.06,6.06 0 0 1 4.8,-3.7 h 23.83 a 3.05,3.05 0 0 1 3.29,3.06 6.13,6.13 0 0 1 -0.5,1.75 z"
         id="path2"
         style="fill:#ffffff" /><path
         class="cls-1"
         d="m 377.81,70 c -13.17,0 -24.41,7.89 -28.31,29.56 l -3.23,17.75 a 52.67,52.67 0 0 0 -0.88,9.63 c 0,12.93 6.27,19.93 19,19.93 15.13,0 24.41,-9.19 28.09,-29.56 l 3.23,-17.75 a 51.89,51.89 0 0 0 0.88,-9.63 C 396.62,77 390.57,70 377.81,70 Z m 46.46,29.56 -3.27,17.71 c -6.71,36.14 -27,54.49 -61,54.49 -29.38,0 -43.14,-21 -43.14,-44 a 56.18,56.18 0 0 1 0.88,-10.52 l 3.11,-17.75 C 327.42,63.6 348.17,45 382.11,45 c 29.58,0 43.2,20.24 43.2,43.15 a 66.92,66.92 0 0 1 -1.04,11.37 z"
         id="path3"
         style="fill:#ffffff" /><path
         class="cls-1"
         d="m 485.63,9.48 -27.58,156.69 a 5.52,5.52 0 0 1 -5,4.57 h -20.17 a 3.51,3.51 0 0 1 -2.53,-1.11 3.45,3.45 0 0 1 -0.94,-2.59 v -0.87 L 457,9.48 a 5.34,5.34 0 0 1 5,-4.36 h 20.2 a 3.29,3.29 0 0 1 2.5,1 3.38,3.38 0 0 1 1,2.52 z"
         id="path4"
         style="fill:#ffffff" /><path
         class="cls-1"
         d="m 541.34,68.59 c -18.66,0 -25.84,13.35 -28.87,31.32 l -3.9,22.55 a 46.72,46.72 0 0 0 -0.87,9 c 0,12.48 6.5,16.63 15,16.63 8.5,0 17.35,-3.5 27.12,-9.18 l 11.92,-68.78 a 116,116 0 0 0 -20.4,-1.54 z m 51.41,-12 -18.88,109.1 a 5.54,5.54 0 0 1 -5.19,4.39 h -17.36 a 3.23,3.23 0 0 1 -2.62,-1 3.31,3.31 0 0 1 -0.87,-2.7 v -0.67 l 0.88,-6.35 c -12.16,9.41 -23,12.42 -33.63,12.42 -20,0 -35.58,-13.57 -35.58,-39.63 A 68.79,68.79 0 0 1 480.58,119 c 0,0 1.73,-11 3.25,-19 6,-34.17 26.68,-55 61.62,-55 A 170.71,170.71 0 0 1 588,50.67 c 3.25,0.89 5,1.54 5,4.17 a 5,5 0 0 1 -0.25,1.8 z"
         id="path5"
         style="fill:#ffffff" /><path
         class="cls-1"
         d="m 704.88,94.88 -12.36,71.27 a 5.77,5.77 0 0 1 -5.21,4.58 h -20 A 3.52,3.52 0 0 1 663.6,167 c 0,-0.22 0.22,-0.67 0.22,-0.87 l 12.36,-71.27 a 89,89 0 0 0 1.52,-13.13 c 0,-8.52 -3.69,-11.37 -15.61,-11.37 -7.37,0 -15.84,3.07 -25.8,7.88 l -15.4,87.89 a 5.79,5.79 0 0 1 -5.21,4.58 h -20 a 3.52,3.52 0 0 1 -2.66,-1 3.61,3.61 0 0 1 -1,-2.68 c 0,-0.22 0.22,-0.67 0.22,-0.87 l 20,-114.35 a 5.34,5.34 0 0 1 5,-4.36 h 18.87 a 3.66,3.66 0 0 1 2.71,1.08 3.73,3.73 0 0 1 1.06,2.74 v 0.64 L 639,56.49 C 652.84,48.41 662.17,46 675,46 c 23.64,0 31.45,14.13 31.45,32.79 a 85.93,85.93 0 0 1 -1.57,16.09 z"
         id="path6"
         style="fill:#ffffff" /><path
         class="cls-1"
         d="m 777.91,70 c -17.41,0 -25.48,11.8 -28.32,27.8 h 46.2 a 53,53 0 0 0 0.86,-8.33 C 796.74,76.74 789.91,70 777.91,70 Z m 46,32.36 -1.75,10.52 c -0.66,3.5 -2.17,5.46 -5.23,5.46 h -71 a 64.73,64.73 0 0 0 -1.08,9 c 0,11.84 6,19.71 22.14,19.71 16.14,0 30.94,-1.52 40.26,-2.41 h 0.87 c 1.75,0 3.28,0.44 3.28,2.41 v 0.89 l -2.54,14.44 c -0.66,3.5 -1.31,5 -5.45,5.68 a 211.23,211.23 0 0 1 -43.75,3.69 c -19.38,0 -42.92,-10.95 -42.92,-44 a 71.54,71.54 0 0 1 1.09,-13.15 l 2.4,-13.6 c 7.19,-40.9 28.77,-56 62.11,-56 29,0 42.72,19.26 42.72,44.89 a 82.85,82.85 0 0 1 -1.15,12.46 z"
         id="path7"
         style="fill:#ffffff" /><path
         class="cls-2"
         d="M 7,0.77 3.69,2.5 a 6.9,6.9 0 0 0 -2.92,9.27 l 95.42,182.86 a 6.86,6.86 0 0 0 4,3.4 7,7 0 0 0 5.25,-0.47 l 3.32,-1.74 a 6.83,6.83 0 0 0 2.89,-9.23 L 16.24,3.67 A 6.87,6.87 0 0 0 7,0.77 Z"
         id="path8" /><path
         class="cls-2"
         d="m 50.93,17.14 -3.29,1.73 a 7,7 0 0 0 -2.9,9.35 l 70.94,137.71 a 6.82,6.82 0 0 0 9.23,3 l 3.31,-1.76 a 6.85,6.85 0 0 0 3.36,-4 7,7 0 0 0 -0.47,-5.25 L 60.14,20 a 6.8,6.8 0 0 0 -9.21,-2.86 z"
         id="path9" /><path
         class="cls-2"
         d="m 89.75,26.34 -3.27,1.72 a 7,7 0 0 0 -2.9,9.33 l 54.67,105 a 6.79,6.79 0 0 0 9.19,3 l 3.29,-1.76 a 6.83,6.83 0 0 0 3.34,-4 6.92,6.92 0 0 0 -0.47,-5.24 L 98.92,29.24 a 6.77,6.77 0 0 0 -9.17,-2.9 z"
         id="path10" /></g></g></svg>
